<svg version="1.2" xmlns="http://www.w3.org/2000/svg" viewBox="0 0 112 66" width="112" height="66">
	<title>Icons  (1)</title>
	<style>
		.s0 { fill: none;stroke: #dc0000;stroke-linecap: round;stroke-linejoin: round;stroke-width: 2 } 
		.s1 { fill: #000000;stroke: #dc0000;stroke-linecap: round;stroke-linejoin: round;stroke-width: 2 } 
	</style>
	<g id="Icons  (1)">
		<path id="Oval" class="s0" d="m85 57c0-4.4 3.6-8 8-8 4.4 0 8 3.6 8 8 0 4.4-3.6 8-8 8-4.4 0-8-3.6-8-8z"/>
		<path id="Oval" class="s0" d="m30 57c0-4.4 3.6-8 8-8 4.4 0 8 3.6 8 8 0 4.4-3.6 8-8 8-4.4 0-8-3.6-8-8z"/>
		<path id="Path" class="s0" d="m30 57h-12v-16"/>
		<path id="Path" class="s0" d="m18 8.9v-7.9h57.3v7.9h17.8l10 17.7 7.9 7.8v21.6h-9.9"/>
		<path id="Path" class="s0" d="m84.5 56.5h-38.5"/>
		<path id="Path" class="s0" d="m83 17h6l6 12"/>
		<path id="Path" class="s0" d="m75.5 9v39.5"/>
		<path id="Path" class="s0" d="m111 48.5h-93"/>
		<path id="Path" class="s0" d="m8 16.5h14"/>
		<path id="Path" class="s0" d="m1 24.5h33"/>
		<path id="Path" class="s1" d="m13 32.5h11"/>
	</g>
</svg>