<svg version="1.2" xmlns="http://www.w3.org/2000/svg" viewBox="0 0 78 77" width="78" height="77">
	<title>Icons  (2)</title>
	<style>
		.s0 { fill: none;stroke: #dc0000;stroke-linejoin: round;stroke-width: 2 } 
		.s1 { fill: none;stroke: #dc0000;stroke-linecap: round;stroke-linejoin: round;stroke-width: 2 } 
	</style>
	<g id="Icons  (2)">
		<path id="Rectangle" class="s0" d="m2 47h13v26h-13z"/>
		<path id="Shape" class="s1" d="m65.3 9.6c0 0-1.1 6.3-5.7 8.5-4.5-1.1-9 2.2-7.9 2.2 1.1 0 2.2 4.6 2.2 4.6 1.1 1.1 3.4 0 3.4 0 2.8 2.8-4.6 7.9-4.6 9.1 0 1.1 2.9 1.7 1.2 3.4-1 0.9-2.1 1.7-3.4 2.2 0 5.6-5.7 5.6-6.8 5.6-1.2 0-3.4-4.4-3.4-5.5 0-1.2 1.2-2.2 1.2-3.4 0-1.2-2.2-3.4-2.2-3.4 0-4.6-3.4-3.4-6.9-3.4-3.4 0-3.3-4.6-3.3-4.6 0 0 0-7.9 5.6-9 5.7-1.2 5.7 1.1 5.7 1.1 2.2 2.2 6.8 0 9.1 0 0 0 1.1-8-1.2-6.8-2.3 1.1-4.3 0.2-4.5-2.2-0.3-3.6 9.9-5.7 9.9-5.7"/>
		<path id="Shape" class="s1" d="m22.9 39c-6.5-12.7-1.7-28.2 10.9-34.9 12.5-6.7 28.1-2.2 35.1 10.3 6.9 12.4 2.7 28.1-9.6 35.3"/>
		<path id="Shape" class="s1" d="m15 50h9.8c5.6 0.3 10.8 2.6 14.7 6.7h9.8c5.2 0 5.2 6.6 0 6.6h-18"/>
		<path id="Shape" class="s1" d="m52.7 61.4l14.5-4.8c3.6-1.2 6.3-0.2 9.8 3.3-40 19.9-27 19.8-62 8.1"/>
	</g>
</svg>