<svg version="1.2" xmlns="http://www.w3.org/2000/svg" viewBox="0 0 72 77" width="72" height="77">
	<title>Icons </title>
	<style>
		.s0 { fill: none;stroke: #dc0000;stroke-linecap: round;stroke-linejoin: round;stroke-width: 2 } 
	</style>
	<g id="Icons ">
		<path id="Path" class="s0" d="m6.5 44.2c3.1 0 8.4-0.9 13.2-8.1 4.8-7.3 7.6-11.2 12.4-17.3 3.6-4.5 6.3-9.5 8.1-15 0.5-2 0.4-2.8 2.1-2.8 4.2 0 6.1 5.5 6.2 9.4-0.4 4.3-1.7 8.6-3.6 12.5-1.7 3.6-0.8 6.4 1.6 6.4h19.2c3 0.3 5.2 2.8 5.3 5.7 0 5.2-3.4 6-3.4 6 2.1 1.1 3.4 3.2 3.2 5.6 0 4.4-4.8 6.3-4.8 6.3 0 0 2.6 0.9 2.6 5.4 0 4.5-6.1 5.9-6.1 5.9 1.5 1.6 2 3.9 1.3 6-0.5 3.1-7 4.8-21.5 4.8-14.6 0-18.5-3.1-22.1-3.1h-19.2v-27.7c0 0 2.5 0 5.5 0z"/>
	</g>
</svg>