<?xml version="1.0" encoding="UTF-8"?><svg version="1.1" width="133px" height="133px" viewBox="0 0 133.0 133.0" xmlns="http://www.w3.org/2000/svg" xmlns:xlink="http://www.w3.org/1999/xlink"><defs><clipPath id="i0"><path d="M1440,0 L1440,5150 L0,5150 L0,0 L1440,0 Z"></path></clipPath><clipPath id="i1"><path d="M66.5,0 C103.226936,0 133,29.7730641 133,66.5 C133,103.226936 103.226936,133 66.5,133 C29.7730641,133 0,103.226936 0,66.5 C0,29.7730641 29.7730641,0 66.5,0 Z"></path></clipPath></defs><g transform="translate(-654.0 -1150.0)"><g clip-path="url(#i0)"><g transform="translate(159.82971428571364 924.0)"><g transform="translate(494.17028571428636 226.0)"><g clip-path="url(#i1)"><polygon points="0,0 133,0 133,133 0,133 0,0" stroke="none" fill="#DC0000"></polygon></g><g transform="translate(53.999999999999545 39.99999999999977)"><polygon points="0,0 0,53.406019 39.6163894,26.7030095 0,0 0,0" stroke="#FFFFFF" stroke-width="4" fill="none" stroke-miterlimit="10"></polygon></g></g></g></g></g></svg>